<svg width="32" height="32" viewBox="0 0 32 32" fill="none" xmlns="http://www.w3.org/2000/svg">
<path d="M23.3356 5.25671C22.9251 4.88726 22.2928 4.92053 21.9234 5.33104C21.5539 5.74155 21.5872 6.37384 21.9977 6.7433L23.394 8.00001H13C8.58172 8.00001 5 11.5817 5 16C5 16.5523 5.44772 17 6 17C6.55228 17 7 16.5523 7 16C7 12.6863 9.68629 10 13 10H23.394L21.9977 11.2567C21.5872 11.6262 21.5539 12.2585 21.9234 12.669C22.2928 13.0795 22.9251 13.1128 23.3356 12.7433L26.669 9.7433C26.8797 9.55366 27 9.28349 27 9.00001C27 8.71652 26.8797 8.44636 26.669 8.25671L23.3356 5.25671Z" fill="white"/>
<path d="M8.66437 26.7433C9.07488 27.1128 9.70717 27.0795 10.0766 26.669C10.4461 26.2585 10.4128 25.6262 10.0023 25.2567L8.60596 24H19C23.4183 24 27 20.4183 27 16C27 15.4477 26.5523 15 26 15C25.4477 15 25 15.4477 25 16C25 19.3137 22.3137 22 19 22H8.60596L10.0023 20.7433C10.4128 20.3738 10.4461 19.7416 10.0766 19.331C9.70717 18.9205 9.07488 18.8873 8.66437 19.2567L5.33104 22.2567C5.12032 22.4464 5 22.7165 5 23C5 23.2835 5.12032 23.5537 5.33104 23.7433L8.66437 26.7433Z" fill="white"/>
</svg>
